<?xml version="1.0" standalone="no"?>
<!DOCTYPE svg PUBLIC "-//W3C//DTD SVG 20010904//EN"
 "http://www.w3.org/TR/2001/REC-SVG-20010904/DTD/svg10.dtd">
<svg version="1.0" xmlns="http://www.w3.org/2000/svg"
 width="426.000000pt" height="426.000000pt" viewBox="0 0 426.000000 426.000000"
 preserveAspectRatio="xMidYMid meet">

<g transform="translate(0.000000,426.000000) scale(0.100000,-0.100000)"
fill="#000000" stroke="none">
<path d="M0 2130 l0 -2130 2130 0 2130 0 0 2130 0 2130 -2130 0 -2130 0 0
-2130z m2205 1471 c294 -61 496 -247 571 -526 26 -97 27 -351 1 -444 -64 -234
-226 -407 -452 -486 -109 -38 -183 -45 -461 -45 -239 0 -273 -2 -278 -16 -3
-9 -6 -218 -6 -465 l0 -449 -210 0 -210 0 0 1225 0 1225 478 0 c426 0 487 -2
567 -19z m-1685 -21 c5 8 10 18 10 23 0 4 5 7 11 7 7 0 8 -7 4 -17 -4 -10 -9
-24 -12 -30 -3 -9 5 -13 27 -13 18 0 29 -4 25 -10 -3 -5 -17 -10 -31 -10 -24
0 -32 -14 -14 -25 6 -3 10 -14 10 -23 -1 -14 -5 -12 -21 8 l-21 24 -19 -24
c-20 -27 -26 -12 -9 21 10 17 7 19 -20 19 -16 0 -30 5 -30 10 0 6 14 10 30 10
29 0 40 13 20 25 -5 3 -10 14 -10 23 0 13 5 12 20 -8 17 -21 21 -23 30 -10z
m3018 -132 l-3 -83 -207 -3 -208 -2 0 -155 0 -155 175 0 175 0 0 -75 0 -75
-175 0 -175 0 0 -170 0 -170 215 0 215 0 0 -85 0 -85 -310 0 -310 0 0 570 0
570 305 0 306 0 -3 -82z m-2863 -138 c26 -29 26 -103 0 -129 -28 -29 -69 -32
-73 -6 -2 13 5 24 20 30 31 14 34 80 3 80 -13 0 -29 -17 -50 -55 -35 -63 -69
-82 -109 -60 -36 18 -52 62 -37 99 11 26 46 51 71 51 19 0 9 -33 -16 -57 -24
-22 -25 -26 -11 -40 22 -22 54 -8 62 27 4 16 15 41 26 55 26 32 87 35 114 5z
m-30 -319 c19 -11 35 -32 44 -57 12 -35 12 -44 -3 -76 -24 -49 -72 -72 -143
-66 -91 8 -141 76 -109 151 29 71 131 94 211 48z m-175 -367 l0 -35 93 1 c131
2 127 2 127 -20 0 -19 -7 -20 -110 -20 l-110 0 0 -29 c0 -20 -6 -30 -20 -34
-19 -5 -20 0 -20 82 0 80 2 87 20 88 16 1 20 -4 20 -33z m220 -319 c0 -24 -5
-35 -14 -35 -16 0 -153 -53 -163 -63 -3 -4 35 -7 85 -7 85 0 92 -1 92 -20 0
-19 -7 -20 -131 -20 l-130 0 3 31 c3 30 8 34 85 64 46 17 86 34 89 38 4 4 -34
7 -84 7 -85 0 -92 1 -92 20 0 19 7 20 130 20 l130 0 0 -35z m2352 -432 c3
-394 5 -452 20 -478 41 -76 93 -105 185 -105 83 0 133 27 169 93 l29 52 3 443
3 443 97 -3 97 -3 0 -455 c0 -425 -1 -458 -19 -505 -53 -137 -151 -213 -306
-236 -234 -34 -423 79 -470 283 -5 25 -10 228 -10 481 l0 437 100 0 99 0 3
-447z m-292 32 l0 -155 -74 -57 c-41 -32 -138 -107 -216 -168 l-142 -110 216
-3 216 -2 0 -125 0 -125 -557 2 -558 3 -3 157 c-4 217 9 351 41 415 60 118
132 164 268 171 119 6 181 -13 251 -77 30 -28 63 -68 73 -90 10 -23 22 -41 27
-41 5 0 106 81 226 180 119 99 220 180 225 180 4 0 7 -70 7 -155z m-2060 40
l0 -75 -130 0 -130 0 0 70 c0 63 2 70 20 70 17 0 20 -7 20 -45 0 -45 0 -45 35
-45 34 0 35 1 35 40 0 28 4 40 14 40 16 0 26 -21 26 -56 0 -21 5 -24 35 -24
35 0 35 0 35 44 0 34 4 46 18 49 9 3 18 5 20 6 1 0 2 -33 2 -74z m-117 -255
l117 -32 0 -32 0 -31 -130 -36 -130 -36 0 26 c0 25 5 27 100 50 55 13 98 26
96 28 -2 2 -37 12 -77 22 -117 28 -119 30 -119 58 0 16 5 23 13 20 6 -2 65
-19 130 -37z m-103 -345 c0 -45 0 -45 35 -45 34 0 35 1 35 41 0 33 3 40 18 37
12 -2 18 -14 20 -41 3 -35 5 -37 38 -37 34 0 34 0 34 45 0 38 3 45 20 45 18 0
20 -7 20 -70 l0 -70 -130 0 -130 0 0 70 c0 63 2 70 20 70 17 0 20 -7 20 -45z
m30 -289 c1 -6 12 3 25 19 18 22 25 25 25 13 0 -9 -4 -20 -10 -23 -20 -12 -9
-25 20 -25 17 0 30 -4 30 -10 0 -5 -14 -10 -31 -10 -32 0 -32 1 -12 -47 3 -7
0 -13 -5 -13 -6 0 -14 9 -17 20 -3 11 -10 20 -15 20 -5 0 -14 -9 -20 -20 -6
-11 -15 -20 -21 -20 -5 0 -3 14 6 30 l16 30 -31 0 c-16 0 -30 5 -30 10 0 6 14
10 30 10 27 0 30 2 20 19 -16 30 -12 49 5 27 8 -11 15 -25 15 -30z m1544 -252
c9 -3 16 -16 16 -28 -1 -20 -2 -20 -14 -3 -17 23 -36 22 -36 -2 0 -12 11 -23
30 -30 54 -18 31 -91 -24 -77 -13 3 -27 13 -30 22 -9 25 2 30 18 9 8 -11 20
-16 30 -12 26 10 18 32 -19 50 -36 17 -45 43 -23 65 13 13 28 15 52 6z m136
-24 c0 -25 4 -30 25 -30 21 0 25 5 25 30 0 17 5 30 10 30 6 0 10 -32 10 -75 0
-43 -4 -75 -10 -75 -5 0 -10 16 -10 35 0 31 -3 35 -25 35 -22 0 -25 -4 -25
-35 0 -19 -4 -35 -10 -35 -6 0 -10 32 -10 75 0 43 4 75 10 75 6 0 10 -13 10
-30z m259 4 c27 -34 27 -72 -1 -101 -26 -28 -52 -29 -78 -3 -41 41 -14 130 39
130 11 0 29 -12 40 -26z m126 -1 c3 -16 10 -41 14 -58 7 -28 8 -27 17 25 6 39
14 56 26 58 14 3 19 -7 24 -47 4 -28 10 -51 14 -51 4 0 10 23 14 50 4 28 11
50 16 50 13 0 12 -9 -2 -86 -9 -50 -15 -64 -29 -64 -14 0 -19 12 -25 58 -7 61
-17 54 -29 -20 -4 -23 -11 -38 -20 -38 -14 0 -27 36 -41 113 -7 44 12 53 21
10z m-1194 -173 c21 -12 25 -50 7 -68 -7 -7 -22 -12 -35 -12 -19 0 -23 -5 -23
-30 0 -16 -4 -30 -10 -30 -6 0 -10 32 -10 75 0 74 0 75 26 75 14 0 34 -5 45
-10z m180 0 c20 -11 26 -54 9 -65 -15 -9 -12 -31 5 -49 11 -11 12 -17 4 -22
-13 -8 -39 21 -39 43 0 7 -7 13 -15 13 -10 0 -15 -10 -15 -30 0 -16 -4 -30
-10 -30 -6 0 -10 32 -10 75 0 74 0 75 26 75 14 0 34 -5 45 -10z m209 -12 c23
-25 25 -55 8 -93 -15 -33 -51 -42 -83 -21 -20 13 -25 25 -25 56 0 70 57 103
100 58z m187 0 c49 -46 14 -132 -50 -126 l-32 3 -3 73 -3 72 32 0 c20 0 42 -9
56 -22z m135 -40 c3 -55 5 -63 23 -63 18 0 20 8 23 63 4 82 22 80 22 -3 0 -61
-2 -66 -26 -77 -43 -20 -59 -1 -62 76 -2 39 1 66 7 66 6 0 11 -28 13 -62z
m242 46 c17 -17 20 -27 10 -37 -4 -3 -14 4 -24 16 -15 18 -20 19 -34 8 -18
-15 -21 -53 -6 -82 14 -25 25 -24 50 3 11 12 23 19 26 15 11 -11 -5 -37 -30
-49 -40 -17 -76 11 -76 60 0 67 47 104 84 66z m190 0 c9 -8 16 -20 16 -25 0
-14 -18 -10 -28 6 -10 19 -39 10 -47 -15 -8 -27 4 -68 23 -75 11 -4 23 2 34
14 18 24 28 27 28 9 0 -18 -31 -48 -51 -48 -51 0 -78 91 -39 130 24 24 43 25
64 4z m136 -59 c0 -43 -4 -75 -10 -75 -6 0 -10 32 -10 75 0 43 4 75 10 75 6 0
10 -32 10 -75z m190 55 c40 -40 14 -130 -38 -130 -10 0 -28 9 -40 20 -43 41
-17 130 38 130 11 0 29 -9 40 -20z m157 -31 l18 -51 5 46 c8 71 25 55 25 -21
0 -53 -3 -68 -15 -71 -11 -2 -22 15 -37 55 l-22 58 0 -57 c-1 -32 -5 -58 -11
-58 -6 0 -10 32 -10 75 0 92 20 102 47 24z m213 41 c0 -5 -11 -10 -25 -10 -18
0 -25 -5 -25 -20 0 -13 7 -20 20 -20 11 0 20 -4 20 -10 0 -5 -9 -10 -20 -10
-15 0 -20 -7 -20 -25 0 -20 5 -25 25 -25 14 0 25 -4 25 -10 0 -5 -16 -10 -35
-10 l-35 0 0 75 0 75 35 0 c19 0 35 -4 35 -10z m160 -9 c6 -12 6 -22 1 -25 -5
-3 -11 1 -15 9 -8 21 -36 19 -36 -4 0 -11 12 -23 29 -31 16 -6 32 -18 35 -26
16 -43 -42 -70 -77 -36 -11 12 -18 24 -14 28 3 3 13 -1 22 -10 9 -9 23 -16 31
-16 25 0 15 35 -16 52 -21 12 -30 25 -30 42 0 38 52 50 70 17z"/>
<path d="M1583 2863 l2 -418 235 0 c207 0 241 2 285 19 106 40 181 108 227
205 26 52 32 79 36 157 5 103 -5 160 -44 240 -49 101 -159 182 -275 204 -29 6
-145 10 -260 10 l-208 0 2 -417z"/>
<path d="M516 2960 c-35 -11 -46 -25 -46 -62 0 -36 34 -58 90 -58 56 0 90 22
90 58 0 38 -11 51 -51 62 -39 11 -44 11 -83 0z"/>
<path d="M3035 1211 c-3 -5 -2 -12 3 -15 5 -3 9 1 9 9 0 17 -3 19 -12 6z"/>
<path d="M1942 1640 c-69 -16 -102 -74 -102 -177 l0 -53 140 0 c137 0 140 0
145 23 9 35 -12 147 -32 169 -33 37 -93 52 -151 38z"/>
<path d="M2370 771 c-23 -44 0 -99 37 -87 26 8 35 59 16 86 -18 25 -39 26 -53
1z"/>
<path d="M1320 575 c0 -22 4 -26 23 -23 14 2 22 10 22 23 0 13 -8 21 -22 23
-19 3 -23 -1 -23 -23z"/>
<path d="M1500 575 c0 -22 4 -26 23 -23 14 2 22 10 22 23 0 13 -8 21 -22 23
-19 3 -23 -1 -23 -23z"/>
<path d="M1696 584 c-9 -8 -16 -26 -16 -39 0 -22 23 -55 38 -55 33 1 51 82 22
101 -20 12 -26 11 -44 -7z"/>
<path d="M1890 545 c0 -37 4 -55 13 -55 37 1 56 50 33 85 -29 44 -46 32 -46
-30z"/>
<path d="M2784 592 c-27 -19 -26 -85 2 -96 38 -15 66 34 45 80 -11 24 -27 30
-47 16z"/>
</g>
</svg>
